<?xml version="1.0" encoding="UTF-8" standalone="no"?>
<!DOCTYPE svg PUBLIC "-//W3C//DTD SVG 1.1//EN"
 "http://www.w3.org/Graphics/SVG/1.1/DTD/svg11.dtd">
<!-- Generated by graphviz version 2.40.1 (20161225.0304)
 -->
<!-- Title: g Pages: 1 -->
<svg width="345pt" height="188pt"
 viewBox="0.00 0.00 345.37 188.00" xmlns="http://www.w3.org/2000/svg" xmlns:xlink="http://www.w3.org/1999/xlink">
<g id="graph0" class="graph" transform="scale(1 1) rotate(0) translate(4 184)">
<title>g</title>
<polygon fill="#ffffff" stroke="transparent" points="-4,4 -4,-184 341.3674,-184 341.3674,4 -4,4"/>
<!-- A -->
<g id="node1" class="node">
<title>A</title>
<ellipse fill="none" stroke="#000000" cx="162" cy="-162" rx="27" ry="18"/>
<text text-anchor="middle" x="162" y="-157.8" font-family="Times,serif" font-size="14.00" fill="#000000">A</text>
</g>
<!-- B -->
<g id="node2" class="node">
<title>B</title>
<ellipse fill="none" stroke="#000000" cx="72" cy="-90" rx="27" ry="18"/>
<text text-anchor="middle" x="72" y="-85.8" font-family="Times,serif" font-size="14.00" fill="#000000">B</text>
</g>
<!-- A&#45;&#45;B -->
<g id="edge1" class="edge">
<title>A&#45;&#45;B</title>
<path fill="none" stroke="#000000" d="M144.6471,-148.1177C128.7101,-135.3681 105.2197,-116.5758 89.2996,-103.8397"/>
</g>
<!-- C -->
<g id="node3" class="node">
<title>C</title>
<ellipse fill="none" stroke="#000000" cx="252" cy="-90" rx="27" ry="18"/>
<text text-anchor="middle" x="252" y="-85.8" font-family="Times,serif" font-size="14.00" fill="#000000">C</text>
</g>
<!-- A&#45;&#45;C -->
<g id="edge2" class="edge">
<title>A&#45;&#45;C</title>
<path fill="none" stroke="#000000" d="M179.3529,-148.1177C195.2899,-135.3681 218.7803,-116.5758 234.7004,-103.8397"/>
</g>
<!-- D -->
<g id="node4" class="node">
<title>D</title>
<ellipse fill="none" stroke="#000000" cx="27" cy="-18" rx="27" ry="18"/>
<text text-anchor="middle" x="27" y="-13.8" font-family="Times,serif" font-size="14.00" fill="#000000">D</text>
</g>
<!-- B&#45;&#45;D -->
<g id="edge3" class="edge">
<title>B&#45;&#45;D</title>
<path fill="none" stroke="#000000" d="M61.563,-73.3008C54.397,-61.8352 44.9132,-46.6612 37.6929,-35.1086"/>
</g>
<!-- E -->
<g id="node5" class="node">
<title>E</title>
<ellipse fill="none" stroke="#000000" cx="117" cy="-18" rx="27" ry="18"/>
<text text-anchor="middle" x="117" y="-13.8" font-family="Times,serif" font-size="14.00" fill="#000000">E</text>
</g>
<!-- B&#45;&#45;E -->
<g id="edge4" class="edge">
<title>B&#45;&#45;E</title>
<path fill="none" stroke="#000000" d="M82.437,-73.3008C89.603,-61.8352 99.0868,-46.6612 106.3071,-35.1086"/>
</g>
<!-- F -->
<g id="node6" class="node">
<title>F</title>
<ellipse fill="none" stroke="#000000" cx="207" cy="-18" rx="27" ry="18"/>
<text text-anchor="middle" x="207" y="-13.8" font-family="Times,serif" font-size="14.00" fill="#000000">F</text>
</g>
<!-- C&#45;&#45;F -->
<g id="edge5" class="edge">
<title>C&#45;&#45;F</title>
<path fill="none" stroke="#000000" d="M241.563,-73.3008C234.397,-61.8352 224.9132,-46.6612 217.6929,-35.1086"/>
</g>
<!-- NULL -->
<!-- C&#45;&#45;NULL -->
</g>
</svg>
